<svg width="511" height="161" viewBox="0 0 511 161" fill="none" xmlns="http://www.w3.org/2000/svg">
<path d="M76.0779 35.5892C81.7849 33.3939 89.1766 31.33 94.9138 29.8826C96.6783 29.4396 95.9186 30.1166 97.1597 29.8245C99.5871 29.2536 101.709 28.3907 104.141 27.8591C104.93 27.6902 104.17 28.6223 104.988 28.4321C109.53 27.3672 113.709 25.9317 118.264 24.7137C128.197 22.0591 137.994 19.3632 147.855 16.5868C160.506 13.0167 173.4 10.4904 186.515 8.63273C194.279 7.52105 203.765 6.96614 211.758 5.88775C212.682 5.76153 212.07 5.23141 212.241 5.16506C214.949 4.14526 214.164 5.42076 215.988 5.40257C223.274 5.32767 231.307 4.74187 238.254 4.03045C241.223 3.72646 238.166 2.76216 241.183 3.21597C241.393 3.2464 240.685 3.92147 241.5 3.93367C243.37 3.95764 246.822 3.62553 248.276 3.58697C250.999 3.51973 251.503 3.48394 254.076 3.34252C255.109 3.28779 256.208 3.25559 257.347 3.22902C260.059 3.16732 262.996 3.14434 265.692 2.9157C266.51 2.84481 265.393 2.25485 266.698 2.08422C267.98 1.91386 271.443 1.8151 272.603 1.91883C273.765 2.02157 273.294 2.54633 273.503 2.6533C275.231 3.55674 279.157 2.05235 279.668 2.00099C288.997 1.08535 297.018 1.6273 305.781 1.419C312.433 1.26019 319.541 0.87352 325.871 0.813013C333.413 0.743811 339.806 1.02038 347.13 0.901071C347.903 0.889368 346.991 0.141871 347.935 0.126153C357.957 -0.0391326 367.913 0.0117247 377.917 0.530108C378.917 0.582842 377.628 1.24412 378.626 1.33648C384.751 1.88444 394.421 3.23627 398.075 0.37796C402.241 0.517192 407.283 0.676588 410.973 1.29702C413.378 1.69692 411.054 2.39337 413.966 2.11775C414.048 2.11003 414.106 2.09308 414.147 2.06926C414.446 1.90444 413.892 1.40889 414.778 1.37144C418.972 1.19092 423.591 1.50046 427.747 1.32359C428.603 1.28654 428.39 0.712308 428.634 0.619289C430.655 -0.135203 433.995 1.38921 434.707 1.52827C440.25 2.56238 444.329 2.561 449.52 3.07646C450.716 3.19888 449.378 2.30165 450.529 2.39346C456.589 2.89435 462.812 3.80995 468.632 5.29817C469.906 5.62942 468.589 6.02814 469.198 6.22127C471.873 7.07794 472.729 6.01489 475.302 6.91136C475.834 7.09939 475.392 7.56133 475.477 7.64514C476.817 8.9658 478.501 8.02738 478.918 8.11329C484.129 9.17256 486.861 11.6267 491.608 13.3175C492.18 13.5239 491.176 12.3534 492.768 12.9769C494.019 13.4701 495.271 13.9904 496.513 14.5283C501.825 16.5806 506.685 21.6907 508.746 26.7469C510.527 30.3809 511.732 35.0606 510.451 39.4181C510.061 40.8024 509.43 41.8917 508.762 42.8626C507.598 44.4484 507.948 42.9791 507.82 43.058C505.917 44.01 506.166 45.6853 505.776 46.1968C502.811 49.8737 498.772 51.5085 497.306 54.6611C481.633 65.4433 465.853 75.2714 448.98 83.2088C448.764 83.3113 448.808 82.5173 448.378 82.7243C448.287 82.7681 448.197 82.8114 448.11 82.854C443.272 85.1681 444.633 85.5741 441.906 88.4123C441.209 89.1367 437.912 89.0706 437.645 89.0729C436.629 89.1115 437.05 87.7913 436.736 87.8566C434.146 88.422 435.983 91.2046 432.817 92.7048C432.717 92.746 432.87 92.0029 432.581 92.0721C431.686 92.2841 430.96 92.8878 430.068 93.0679C428.024 93.4725 426.717 92.3113 424.26 94.4163C423.943 94.6859 425.266 96.1575 422.368 97.3166C421.223 97.7804 416.172 99.9358 414.704 100.394C413.24 100.86 413.987 99.9044 413.876 99.9215C409.74 100.734 411.086 99.8313 408.728 99.4998C406.38 99.1626 407.943 101.559 407.272 102.158C406.596 102.759 403.545 103.229 402.767 103.278C401.99 103.329 402.722 102.641 402.057 102.755C397.683 103.502 400.757 104.733 399.56 105.657C396.74 107.831 393.531 106.784 390.538 107.635C389.73 107.864 390.534 108.081 389.844 108.373C387.092 109.527 385.196 109.502 382.207 111.155C381.712 111.428 379.537 113.488 377.56 113.181C377.28 113.135 377.79 112.418 376.553 112.709C374.716 113.14 371.449 114.095 369.567 114.886C368.177 115.47 370.075 115.754 368.203 116.08C367.37 116.223 368.694 115.273 367.141 115.582C365.59 115.892 361.786 117.119 360.336 117.588C358.894 118.057 359.878 118.428 359.775 118.506C359.141 118.967 356.435 120.13 356.193 120.202C350.974 121.841 345.853 123.189 340.774 124.476C333.764 126.252 326.826 127.879 319.769 129.948C318.812 130.227 319.627 130.719 319.483 130.769C316.262 131.904 318.401 129.471 315.95 129.478C316.631 130.733 315.2 130.846 312.921 131.582C311.82 131.937 312.561 132.303 312.473 132.382C311.009 133.594 309.59 132.861 309.243 132.726C307.952 132.231 306.978 133.436 306.1 133.106C305.225 132.779 306.762 131.601 304.535 132.156C304.027 132.791 305.991 133.646 304.346 134.264C298.131 136.615 285.898 138.36 280.7 139.359C275.51 140.371 273.856 140.803 270.804 141.252C265.289 142.049 267.48 142.582 264.174 143.693C260.858 144.799 262.055 142.148 261.468 141.745C260.891 141.34 260.469 141.957 259.819 141.798C259.172 141.639 260.391 141.05 258.975 141.218C257.559 141.388 253.906 143.003 253.506 143.618C252.664 144.922 254.61 145.765 250.82 146.046C250.603 146.061 251.182 145.321 250.353 145.41C243.775 146.136 237.016 147.283 230.445 147.927C229.54 148.015 230.229 147.201 229.702 147.244C224.217 147.681 226.337 148.52 223.562 150.27C223.963 148.459 222.159 147.68 218.044 148.291C215.572 148.654 216.105 149.336 214.58 150.097C214.121 150.326 212.299 150.067 212.029 150.464C211.144 151.76 212.98 152.814 208.648 152.901C208.458 152.903 208.964 152.192 208.314 152.243C204.101 152.571 203.765 153.84 199.262 154.573C197.947 154.785 196.232 154.926 194.399 155.033C191.284 155.216 187.811 155.298 185.271 155.506C185.134 153.57 181.379 154.431 179.966 155.923C177.334 156.146 174.498 156.508 171.952 156.567C171.068 156.589 171.592 155.974 171.475 155.925C169.69 155.139 168.675 156.539 168.114 156.642C162.011 157.7 156.918 157.128 151.117 158.522C150.916 158.572 150.668 159.942 149.023 159.073C148.917 159.013 150.814 158.263 148.047 158.412C145.276 158.561 140.029 158.18 136.218 159.022C135.311 159.226 132.993 160.452 131.077 159.696C130.821 159.593 131.076 159.193 130.699 158.997C129.484 158.374 128.91 159.767 127.483 158.679C126.042 157.59 123.139 156.863 119.314 157.818C119.191 157.846 118.31 158.963 117.097 158.993C115.153 159.04 112.386 158.913 110.352 158.984C109.386 159.019 110.026 159.669 109.858 159.687C103.32 160.263 98.6712 159.774 91.6411 159.616C90.381 159.586 86.662 160.543 84.1822 159.836C81.4486 159.059 84.2268 155.762 77.9759 156.562C77.7331 156.592 77.4856 156.659 77.2329 156.753C74.8209 157.626 71.7874 160.832 67.7124 158.782C58.8904 159.085 50.8364 157.53 42.0442 156.957C41.6546 156.931 40.2096 157.878 39.2976 157.696C37.9119 157.419 37.2723 156.733 36.3153 156.495C32.2853 155.471 28.4926 154.87 24.7371 153.4C23.3148 152.836 24.015 152.506 22.3474 151.806C22.2348 151.758 22.1239 151.714 22.0142 151.674C20.524 151.115 19.1177 151.145 17.3342 149.633C15.8932 148.381 15.3798 146.096 13.8017 144.392C12.7296 145.423 11.4861 144.305 9.21839 142.303C8.78214 141.915 8.79425 142.726 8.56657 142.558C7.62611 141.876 7.30678 140.793 6.42554 140.13C6.21128 139.967 5.79846 140.268 5.60001 140.15C3.87675 139.148 3.11522 136.018 3.00666 135.493C2.88714 134.967 2.7296 134.551 2.55324 134.201C2.53335 134.172 2.49464 134.083 2.4853 134.049C2.33472 132.921 1.85554 132.221 1.84517 131.086C1.84495 129.568 2.64353 131.668 2.4892 129.941C2.17211 126.375 1.66621 121.847 1.72124 118.234C1.73987 116.796 1.04978 117.768 1.0365 117.562C0.896354 114.522 1.9441 111.623 0.874695 109.752C4.72027 108.295 0.705445 107.877 2.64235 103.795C2.80897 103.482 4.49557 103.639 4.35226 104.889C4.21824 106.125 3.26284 107.852 3.35118 109.649C3.35238 110.083 4.58954 112.592 4.6671 112.901C5.17133 115.378 2.72489 115.605 2.5721 115.739C1.01072 117.229 2.72239 120.21 2.88609 120.941C3.56886 124.397 3.61828 127.37 4.55549 130.149C5.13315 131.828 6.58158 131.773 7.03147 132.866L6.46083 131.593C6.52663 131.668 6.58927 131.751 6.64848 131.847C9.29211 136.026 8.54734 138.911 13.0572 140.993C14.0357 141.39 14.5903 139.539 16.0087 142.791C16.0708 142.988 17.1661 145.608 18.8189 145.724C19.021 145.739 19.3057 145.307 19.5165 145.395C20.9208 145.974 21.5794 146.82 23.1331 147.304C23.3264 147.362 23.5258 147.418 23.7304 147.473C25.368 147.942 27.213 148.424 28.8683 149.139C30.0031 149.634 31.2769 151.02 31.7923 151.408C33.2685 152.537 35.3294 151.884 36.1912 152.917C37.0801 153.955 34.6951 154.738 37.4384 155.859C37.8108 154.562 38.3218 153.256 38.7479 151.961C44.7666 153.183 50.8869 154.252 57.2192 154.598C58.0036 154.639 57.2446 153.868 58.0903 153.891C61.6447 153.985 64.7394 154.619 68.4572 154.499C71.2352 154.404 74.288 153.71 77.2312 153.488C77.3199 153.481 77.4087 153.475 77.4975 153.469C79.3477 155.009 83.8547 154.47 87.1214 154.577C88.277 154.614 88.1874 155.026 89.0063 155.151C92.1084 155.61 90.627 154.267 91.469 154.042C95.0807 153.075 95.4192 156.15 99.7003 155.986C99.9129 155.979 102.66 154.274 103.024 154.162C105.411 153.434 103.433 154.723 104.95 154.805C107.716 154.951 109.639 155.286 112.873 154.695C113.798 154.521 116.046 153.417 117.894 154.135C118.139 154.229 118.027 154.776 118.223 154.8C121.765 155.187 121.783 153.476 123.76 152.811C125.731 152.145 128.884 153.166 129.535 153.471C131.237 154.262 128.285 153.91 128.204 154C127.206 155.075 129.458 154.788 131.195 154.782C131.528 156.438 133.946 156.206 132.987 154.768C132.877 154.612 131.542 154.84 131.195 154.782C132.619 153.065 135.248 152.711 138.284 154.063C139.698 154.695 138.439 155.617 142.607 155.044C144.482 154.784 143.677 153.684 145.327 153.258C149.081 152.289 154.12 152.991 158.028 152.502C159.454 152.324 158.014 151.81 158.978 151.667C161.536 151.284 163.856 151.558 166.429 151.081C166.663 151.037 166.027 150.433 166.835 150.351C172.93 149.716 178.279 149.601 184.64 148.903C186.908 148.654 190.484 148.039 193.486 147.595C194.532 147.44 195.51 147.308 196.338 147.222C201.856 146.653 208.757 146.672 213.422 145.753C216.463 145.157 215.699 144.6 216.94 143.961C219.335 142.725 224.043 143.569 224.686 143.709C224.706 143.715 222.098 144.282 223.555 144.396C224.481 144.964 224.657 143.717 224.686 143.709C225.109 143.804 230.385 143.105 231.406 142.804C231.961 142.642 231.542 142.078 231.833 142.006C238.757 140.289 245.734 138.892 252.874 137.845C253.001 137.833 252.942 138.556 253.24 138.521C257.403 138.05 259.868 136.698 263.143 135.529C266.418 134.358 269.12 133.976 271.36 134.736C273.873 134.06 277.628 133.803 279.795 133.661C281.96 133.52 281.962 132.124 282.14 132.058C287.697 129.95 291.184 129.956 297.154 128.672C299.987 128.068 305.544 126.513 308.546 125.604C310.93 124.882 312.446 124.825 314.617 124.055C314.909 123.952 314.455 123.443 314.541 123.397C316.826 122.057 316.012 123.797 316.588 123.92C318.678 124.369 319.958 124.565 323.001 123.281C323.709 122.984 325.261 120.356 326.554 119.871C328.234 119.245 327.789 120.161 329.536 119.484C329.687 119.426 329.523 118.983 330.643 118.692C333.178 118.028 335.835 117.362 338.495 116.662C341.298 115.924 344.112 115.155 346.82 114.318C347.551 114.094 346.398 113.659 347.449 113.323C352.36 111.755 357.761 110.115 362.649 108.926C363.857 108.634 363.276 109.369 363.58 109.435C365.446 109.828 367.235 107.813 367.6 107.667C376.126 104.2 383.173 103.112 391.769 99.3757C392.237 99.172 395.39 96.4551 397.469 97.0136C397.612 97.0497 399.672 97.65 400.794 96.2799C400.862 96.1948 399.625 95.9597 401.397 95.3538C403.166 94.7483 405.818 93.2406 408.47 92.9598C409.305 92.8714 411.582 93.3394 413.444 91.4619C413.568 91.3366 416.124 87.7609 417.959 88.7033C418.255 88.8602 418.736 90.4994 421.037 88.5513C421.475 88.1759 420.401 88.2369 421.644 87.4329C423.538 86.2021 426.4 85.4039 428.555 83.5582C428.92 83.2405 430.262 81.3377 432.083 81.415C432.371 81.4256 432.184 82.1447 432.983 81.8236C436.77 80.3026 440.362 78.0141 444.112 76.3586C444.215 76.3128 444.31 76.2777 444.396 76.2517C445.458 75.9182 445.377 76.8717 446.742 76.3603C448.2 75.8186 451.08 74.4549 452.256 73.3034C453.48 72.1248 451.209 71.7514 453.27 70.4377C462.184 64.737 471.649 60.1589 480.458 54.6133C481.772 53.7803 480.418 54.0479 482.298 52.8C488.685 48.8236 500.976 38.5185 501.468 37.2394C501.532 37.126 501.592 37.0157 501.65 36.9065C502.251 35.6312 502.533 35.6411 502.884 35.9926C503.19 36.2925 503.491 36.8201 503.625 35.3768C503.701 33.8714 501.466 32.7199 501.283 32.4284C500.996 31.9312 500.71 31.4351 500.426 30.9381C498.627 27.73 498.025 26.1173 495.643 24.6099C495.068 24.2756 495.222 25.2028 494.745 24.9291C494.036 24.5353 493.28 24.1007 492.45 23.6845C491.057 23.0032 489.683 22.3245 488.34 21.8109C487.275 21.4081 487.279 21.9725 486.323 21.554C484.041 20.57 482.061 19.6371 479.898 18.4358C479.7 18.3263 481.321 18.1574 479.568 17.5786C476.713 16.6449 473.225 15.2176 469.691 14.9631C468.651 14.8942 468.37 16.044 466.363 14.8094C465.944 14.5569 466.773 13.24 464.003 13.9999C463.506 14.1093 458.984 15.0616 456.993 13.7207C456.475 13.3635 455.165 12.008 453.891 12.0425C453.717 12.0515 454.327 12.7695 453.273 12.7078C449.586 12.4861 445.73 12.0613 441.91 11.9818C440.882 11.962 442.362 12.7341 440.827 12.685C436.66 12.5547 431.445 12.1251 427.358 11.7753C425.827 11.6439 426.906 11.1314 426.797 11.0677C425.059 10.0344 423.978 11.3191 423.378 11.3789C419.897 11.7191 417.244 11.1404 414.043 11.1847C413.871 11.1873 413.698 11.1917 413.522 11.1982C412.592 11.2312 413.244 11.8649 413.058 11.9187C411.115 12.4431 412.574 11.3341 411.338 11.1969C407.903 10.8094 404.025 10.8255 400.551 10.8805C399.267 10.9017 400.706 11.6382 399.551 11.6489C392.722 11.7263 385.656 11.6289 379.008 11.2207C377.761 11.1426 378.546 10.5842 378.286 10.4562C376.485 9.56049 373.848 10.7795 373.245 10.896C370.475 11.4276 369.422 10.9347 366.979 11.0319C355.088 11.5127 340.402 11.2986 329.174 11.2581C314.551 11.2089 303.192 10.9173 289.268 11.4894C288.385 11.5256 289.299 12.2408 288.539 12.2816C278.699 12.7786 269.01 12.8765 259.188 13.6198C258.388 13.6794 259.579 14.321 258.299 14.4407C258.189 14.4512 258.079 14.4615 257.968 14.4716C255.344 14.7072 252.156 14.8476 249.575 14.7892C248.27 14.7605 249.977 14.0494 248.659 14.0333C245.551 13.9975 242.271 14.1612 239.13 14.4939C237.787 14.6377 239.866 15.2148 238.121 15.346C226.268 16.2603 214.69 17.3862 202.737 17.8844C201.93 17.9177 201.011 16.5516 199.328 17.0489C199.25 17.469 199.318 17.9428 199.317 18.3813C182.955 20.7061 166.868 23.1436 151.206 27.7421C150.562 27.9311 149.922 28.1195 149.286 28.3075C148.578 28.5167 150.022 28.8943 148.655 29.3024C140.766 31.6589 133.11 34.1742 124.809 35.8568C123.984 36.0256 123.987 34.5978 121.71 35.4967C121.274 35.6668 117.818 36.8949 116.947 37.4667C116.835 37.5472 117.669 37.9624 116.525 38.3259C109.931 40.4114 102.855 42.3963 96.1593 44.0634C95.0565 44.3384 96.0072 43.3321 95.2232 43.5216C89.7589 44.8453 84.0508 47.184 78.8772 48.3644C75.4506 49.1675 76.2676 47.6211 74.1108 47.227C73.8075 47.1579 71.8662 47.9928 71.5103 47.4499C70.4411 46.0946 70.6508 43.9197 69.4289 42.5139C69.3612 42.4395 69.1339 42.4967 68.788 42.6465C68.6198 42.7192 68.4515 42.7996 68.2603 42.8989C68.0404 43.0151 67.8232 43.1387 67.6207 43.2591C67.1952 43.5006 66.6419 43.94 66.5081 43.9452C66.4352 43.9501 66.4567 43.8326 66.5998 43.594C66.6709 43.4759 66.7713 43.3308 66.9013 43.167C66.9663 43.0851 67.0386 42.9985 67.1187 42.9077C67.1876 42.8251 67.2417 42.7534 67.3126 42.6702C67.7177 42.2478 69.9633 40.8181 70.3865 40.3212C70.6987 39.9506 69.7386 39.6118 70.4028 39.0288C71.1028 38.4353 72.1883 38.6248 73.2948 37.8621C74.463 37.0796 73.6264 36.5441 76.0779 35.5892ZM289.549 132.967C291.634 133.162 291.384 130.764 289.418 131.8C289.324 131.853 289.442 132.959 289.549 132.967ZM50.695 155.952C53.1708 157.248 55.0648 155.823 53.3104 154.869C51.6039 153.912 49.9505 155.557 50.695 155.952ZM24.7082 151.145C27.2489 152.975 28.767 149.905 25.6124 149.483C25.4298 149.455 24.5635 151.038 24.7082 151.145ZM82.2784 43.9473C82.2547 43.9206 80.7051 44.4087 80.6841 44.4503C80.1189 45.4423 83.1783 44.4776 82.2784 43.9473ZM4.84262 135.086C4.99356 136.136 7.01719 138.032 6.7939 136.747C6.61457 135.731 4.65216 133.797 4.84262 135.086ZM390.068 106.563C390.111 106.586 391.202 106.23 391.116 106.046C390.82 105.463 389.377 106.173 390.068 106.563ZM11.9702 97.4801C9.1439 96.2928 6.60516 97.749 5.43782 98.0148C4.85433 98.144 4.56973 97.9716 4.82741 97.3748C5.11016 96.8437 5.86154 95.5488 8.31292 94.8266C9.20367 94.6423 8.25447 95.0413 7.60487 95.6184C6.94542 96.199 6.56921 96.8127 7.42334 96.4325C10.464 95.2388 13.6752 94.9486 16.0165 97.4712C16.2216 97.7124 15.2493 97.601 14.22 97.5431C13.1861 97.469 12.1191 97.5278 11.9587 97.4805C11.9625 97.4804 11.9664 97.4802 11.9702 97.4801ZM291.306 135.514C291.351 135.537 292.922 135.207 292.952 135.168C293.627 134.233 290.467 134.897 291.306 135.514ZM452.396 80.5278C452.524 80.5342 455.756 78.7678 455.845 78.6436C456.912 76.6074 450.325 80.2057 452.396 80.5278ZM185.202 155.461C183.535 156.417 181.471 156.731 179.975 155.923C181.716 155.79 183.446 155.61 185.202 155.461Z" fill="#E30818"/>
</svg>
